<svg xmlns="http://www.w3.org/2000/svg" width="24" height="24" viewBox="9 19 320 320" fill="currentColor" role="img" aria-label="Planeur">
  <path d="M27 105c0 1.7 11.5 14.3 27.1 29.5 14.8 14.4 33.1 29.1 57.1 45.8l9.6 6.7 5.8-1.5c3.2-.8 7.4-1.5 9.4-1.5 3.4 0 3.3-.2-4.8-5.3-40.6-25.5-53.5-35-84.7-62.4-10.7-9.4-14.6-12.3-16.7-12.3-1.5 0-2.8.4-2.8 1m182 63.7c0 .4 4.6 3.3 10.1 6.3 5.6 3 10.3 6 10.6 6.6.5 1.5-10.2 18-12.2 18.8-1.5.5-23.5-1.7-33.6-3.5-3.1-.5-11.1-2.7-17.7-4.9-6.7-2.2-12.5-4-13-4s-.7 1.1-.5 2.4c.6 2.9-2 8.2-4.8 9.6-1.1.7-6.6 1.2-12 1.2l-10 .1-3.7-3.5c-6.2-5.9-7.6-6.3-12.5-3.5-6.2 3.7-9.3 7.3-7.8 9.1 2.1 2.5 10.4 5.8 18.1 7.2 11.4 2 22.6 1.7 40-1.2l3.5-.6-3.7-1.9c-5.9-3-4.5-3.2 2-.3 52.2 23.6 79 33.6 114.7 42.9 51.9 13.5 78.6 17 34.3 4.5-27.1-7.6-53.7-16.3-67.9-22.3-14.6-6.2-51.2-22.8-52.3-23.9-1.6-1.4 34.1-1 36.4.4 1.6 1.1 2.3 1 3.7-.5 2.7-2.6 9.3-21 7.9-21.9-2.7-1.8 1.1-.4 12.6 4.6 11.9 5.2 18.8 7.4 18.8 6.1 0-.3-6-3.5-13.2-7-7.3-3.6-12.6-6.5-11.7-6.5 1.2 0 2.1-1.7 3.1-5.9l1.5-5.9-3.1-.5c-6.2-1-11.1 1.5-12.9 6.6-.3.8-3.7-.4-10.3-3.5-10.6-5.1-14.4-6.4-14.4-5.1m33.1 12.6c-1 .9-1.1.8-.5-.6.3-1 .9-1.5 1.2-1.2s0 1.1-.7 1.8M125.5 188c-3.8 1-7.4 1.9-8 1.9-1.9.2 8.8 9 11.7 9.6 1.6.4 6.6.4 10.9 0 7.8-.7 8.1-.8 9.6-4 2.4-5 1.2-8.1-3.4-8.9-6.5-1-13.5-.6-20.8 1.4m111.8 8.2c-1.8 5.1-3.1 9.4-2.9 9.6s1.9-.3 3.8-1.1c3.2-1.3 3.7-2.1 5.2-8.3 1.6-6.5 1.6-6.9 0-8.1-1-.7-2-1.3-2.3-1.3s-2 4.2-3.8 9.2"/>
</svg>
