<svg xmlns="http://www.w3.org/2000/svg" viewBox="0 0 102.28 89.51">
<g>
<path d="M100.15,64.93A2.06,2.06,0,0,1,99,62.83c0-4.54.16-9.06-.25-13.54-.72-7.91-8-14.13-16-14-6.77,0-12.45,4.29-14.89,11-1.24,3.41-2.42,6.86-3.88,10.17a24.35,24.35,0,0,1-3.26,5.13,6.36,6.36,0,0,1-5.35,2.47c-3-.06-5.87,0-8.87,0a5.79,5.79,0,0,1-4.17-1.54,18.33,18.33,0,0,1-2.64-3.12c-2.63-4-4-8.62-5.46-13.12a15.93,15.93,0,0,0-31.09,5c0,4,0,7.87,0,11.87a1.59,1.59,0,0,1-.91,1.61A4.56,4.56,0,0,0,.15,69.9,4.74,4.74,0,0,0,4.6,73.46H6.34c0,.68.08,1.16.08,1.68V87.37c0,1.63.37,2.07,1.94,2.07h12c1.42,0,1.88-.51,1.88-2V75.86c9.4,3.55,19.07,4,28.82,4s19.49-.47,28.94-4V87.51c0,1.5.47,2,2,2H93.76c1.67,0,2.06-.41,2.06-2.07V75.2c0-.51.08-1,.08-1.68.7,0,1.29,0,1.88,0a4.71,4.71,0,0,0,4.3-3.43A4.46,4.46,0,0,0,100.15,64.93ZM82,41.59l.17,0,.46,0H83c.33,0,.66,0,1,0,.15,0,.29,0,.44.06l.52.08.31.08a6.25,6.25,0,0,1,.62.16L86,42a9.78,9.78,0,0,1,6.78,8.86,2.09,2.09,0,0,1,0,.25,9.7,9.7,0,0,1-9.16,9.78l-.19,0h-.54c-.23,0-.46,0-.68,0h0A9.69,9.69,0,0,1,82,41.59Zm-63-.07a9.69,9.69,0,0,1,.52,19.38,9.32,9.32,0,0,1-1.06,0,7.86,7.86,0,0,1-.83-.11h-.07a9.68,9.68,0,0,1-8-9.34h0A9.69,9.69,0,0,1,19,41.52Zm77.58,29H5.75a5.57,5.57,0,0,1-1,0l-.36-.07a1.56,1.56,0,0,1-1.34-1.64c0-1.07.7-1.56,1.68-1.68a8,8,0,0,1,1.2,0l45.25,0H96.52a6,6,0,0,1,.89.06c1.24.13,1.81.6,1.83,1.61C99.27,69.94,98.45,70.48,96.53,70.48Z"/>
<path d="M10.19,31.78c2.07,0,2.37-.33,2.45-2.33a6.32,6.32,0,0,1,.11-.76c2.61-.41,3.21-.25,3.61.89,1.1-.65,2.15-1.36,3.28-1.93C25.07,24.9,30.91,23.76,36.91,23a115.91,115.91,0,0,1,28.35,0,54.13,54.13,0,0,1,15.87,4c1.74.77,3.35,1.8,5,2.71.28-1.23,1.21-1.49,3.36-.94.27,3.25.28,3.24,4.1,2.92l.52-.08a6.15,6.15,0,0,0,4.83-7.25c-.67-3.44-3.28-5.27-7.38-5.16-1.45.07-1.94.58-1.94,2v4.34H86.24c0-1.76,0-3.43,0-5.05A20.53,20.53,0,0,0,65.8.09Q51.18-.09,36.53.09c-7.3.09-13,3.43-17,9.43a20.09,20.09,0,0,0-3.33,11v4.89H12.58a42.59,42.59,0,0,0,0-4.52,2.19,2.19,0,0,0-1.05-1.61,6.71,6.71,0,0,0-7.35,2.79,6.09,6.09,0,0,0-.13,6.49C5.39,31,7.55,31.78,10.19,31.78Z"/>
<path d="M60.09,26a105.83,105.83,0,0,0-29.35,1.57,33.62,33.62,0,0,0-11.35,4.13,2.47,2.47,0,0,0,.42.17,5.7,5.7,0,0,0,.83.09c7.81.79,13.3,4.82,16.41,12,1.09,2.52,1.85,5.2,2.85,7.73a67,67,0,0,0,3.2,6.68,4.38,4.38,0,0,0,4.39,2.34,39.6,39.6,0,0,1,6.35,0c3,.32,4.85-1.08,6.14-3.56a22.79,22.79,0,0,0,1.24-2.47c1.13-2.94,2.15-5.92,3.33-8.84a28,28,0,0,1,2.78-5.78A19,19,0,0,1,79.5,32.23c1.07-.21,2.17-.3,3.25-.44l.08-.3c-1.78-.77-3.53-1.65-5.35-2.28A68.58,68.58,0,0,0,60.09,26Z"/>
<path d="M19.41,45.07a6.32,6.32,0,0,0-6.59,6v0a6.3,6.3,0,0,0,6.28,6.32h.19a6.21,6.21,0,0,0,6.11-5.59,1,1,0,0,0,0-.17c0-.17,0-.33,0-.5v-.07A6.32,6.32,0,0,0,19.41,45.07Z"/>
<path d="M83.59,44.94c-4.16.14-6.5,2.3-6.69,6a6.08,6.08,0,0,0,5.63,6.5c.2,0,.4,0,.6,0h0a6.3,6.3,0,0,0,6.31-6.26C89.45,47.91,86.64,44.84,83.59,44.94Z"/>
</g>
</svg>