<svg xmlns="http://www.w3.org/2000/svg" viewBox="0 0 50.33 66.66"><defs><style>.cls-1{fill:#6d6d6d;}.cls-2{fill:#707173;}.cls-3{fill:#fff;}.cls-4{fill:#f2f2f2;}</style></defs><title>hobby_idee</title><g id="Calque_2" data-name="Calque 2"><g id="ampoule"><g id="ampoule-2" data-name="ampoule"><path class="cls-1" d="M40.31,35.51c-3.73,4.65-6.21,6.7-6.87,14.43L16.85,52.1a19.13,19.13,0,0,0-3.77-12.38,65.32,65.32,0,0,1-4.29-6v0A18.21,18.21,0,0,1,6.5,24.82a18.63,18.63,0,0,1,37.25,0A18.21,18.21,0,0,1,40.31,35.51Z"/><polygon class="cls-1" points="33.51 52.05 16.88 54.15 16.88 56.39 33.51 54.3 33.51 52.05"/><polygon class="cls-1" points="33.51 56.16 16.88 58.26 16.88 60.5 33.51 58.41 33.51 56.16"/><polygon class="cls-1" points="33.51 60.51 16.88 62.6 23.1 66.66 27.35 66.66 33.51 62.41 33.51 60.51"/></g><g id="lueurs"><path class="cls-2" d="M41.25,7.37a1.17,1.17,0,0,1,1.65-.08,1.18,1.18,0,0,1-.11,1.65l-2.25,2.19L39,9.56Z"/><path class="cls-2" d="M41.23,42.69a1.1,1.1,0,1,0,1.53-1.57l-2.24-2.19L39,40.49Z"/><path class="cls-2" d="M9,42.73a1.18,1.18,0,0,1-1.65.08,1.17,1.17,0,0,1,.11-1.65L9.72,39l1.53,1.57Z"/><path class="cls-2" d="M9,7.39a1.17,1.17,0,0,0-1.65-.08A1.18,1.18,0,0,0,7.47,9l2.25,2.19,1.53-1.57Z"/><path class="cls-2" d="M1.23,26.17a1.11,1.11,0,1,1,0-2.2H4.37v2.2Z"/><path class="cls-2" d="M49.1,26.17a1.11,1.11,0,1,0,0-2.2H46v2.2Z"/><path class="cls-2" d="M26.25,1.24a1.11,1.11,0,1,0-2.2,0V4.37h2.2Z"/></g><g id="filament"><path class="cls-3" d="M29.32,33.63V48H27.27V33l1.59-2.25,3.66-5.17a1,1,0,1,1,1.67,1.17l-4.87,6.9"/><path class="cls-3" d="M21,33.63V48h2V33l-1.58-2.25-3.66-5.17a1,1,0,1,0-1.67,1.17L21,33.63"/></g><path class="cls-4" d="M14,18,18,22.83l-.6.51-4.1-4.81Z"/><path class="cls-4" d="M22.52,20.36l-.72.33-.29-.63a1.55,1.55,0,0,1-1,1.33,2.2,2.2,0,0,1-1.74.09,2.09,2.09,0,0,1-1.26-1.14,2.14,2.14,0,0,1-.07-1.7,2.2,2.2,0,0,1,1.19-1.28,1.54,1.54,0,0,1,1.63.12L19.12,15l.73-.33ZM21,19.06l-.27-.58a1.44,1.44,0,0,0-2.55.35A1.49,1.49,0,0,0,18.28,20a1.47,1.47,0,0,0,.85.79,1.4,1.4,0,0,0,1.12,0,1.48,1.48,0,0,0,.75-.84A1.45,1.45,0,0,0,21,19.06Z"/><path class="cls-4" d="M23.46,18.15v0a1.51,1.51,0,0,0,.45,1.07,1.47,1.47,0,0,0,1,.42,1.42,1.42,0,0,0,1-.46l.24-.28.75.26a3.14,3.14,0,0,1-.38.5,2.24,2.24,0,0,1-1.63.69,2.18,2.18,0,0,1-1.62-.64,2.19,2.19,0,0,1,0-3.13,2.2,2.2,0,0,1,1.61-.68,2.23,2.23,0,0,1,1.64.65,2.13,2.13,0,0,1,.59,1.54Zm.13-.69,2.64,0a1.24,1.24,0,0,0-1.32-.8A1.26,1.26,0,0,0,23.59,17.46Zm2.73-2.81L25,15.72h-.84l.9-1.06Z"/><path class="cls-4" d="M28.73,18.62v0a1.46,1.46,0,0,0,0,1.16,1.41,1.41,0,0,0,1.9.78,2.18,2.18,0,0,0,.33-.16l.59.53a2.75,2.75,0,0,1-.55.31,2.22,2.22,0,0,1-1.77,0A2.19,2.19,0,0,1,28,20a2.18,2.18,0,0,1,1.2-2.89,2.22,2.22,0,0,1,1.75,0,2.26,2.26,0,0,1,1.25,1.25A2.12,2.12,0,0,1,32.11,20Zm.39-.58,2.43,1a1.23,1.23,0,0,0-.89-1.26A1.26,1.26,0,0,0,29.12,18Z"/><path class="cls-4" d="M33.54,21.44a3.51,3.51,0,0,1-.21-.71,1,1,0,0,1,.94-1.15,1.1,1.1,0,0,1,.82.26,1.06,1.06,0,0,1,.4.71,1,1,0,0,1-.19.7l-.08.09-.73-.23a1.19,1.19,0,0,0,.25-.55.23.23,0,0,0-.09-.19.3.3,0,0,0-.23-.06.38.38,0,0,0-.25.14.39.39,0,0,0-.09.29,2,2,0,0,0,.1.41,3.42,3.42,0,0,1,.24.85,1.21,1.21,0,0,1-.27.9,1.28,1.28,0,0,1-1.82.14,1.25,1.25,0,0,1-.48-.89,1.28,1.28,0,0,1,.31-1l.74.35a1,1,0,0,0-.31.62.52.52,0,0,0,.18.35.49.49,0,0,0,.38.11.56.56,0,0,0,.39-.22.55.55,0,0,0,.14-.44A3.51,3.51,0,0,0,33.54,21.44Z"/></g></g></svg>