<svg xmlns="http://www.w3.org/2000/svg" viewBox="0 0 488.89 486.29">
<g>
<path d="M70.74,393.64v5.71q0,33-.06,66c0,1.78-.66,4.93-1.51,5.11a23.68,23.68,0,0,1-8.8-.15c-.58-.1-.93-2.91-.94-4.47-.06-22.66-.2-45.33.07-68,.06-5-1.3-6.58-6.41-7.43-11.6-1.92-23-5-34.52-7.55-3.35-.74-4.54-2.45-4.3-6,1.21-17.94,2.2-35.9,3.33-53.85,1.22-19.44,2.71-38.87,3.63-58.32.23-4.75,1.7-6.91,6.35-7.41,10.38-1.07,20.75-2.38,31.52-3.72.08-1.53.25-3.15.25-4.77,0-30.49-.06-61,.09-91.49,0-3.77-1.28-5.57-4.61-7.1-16-7.43-31.66-15.63-45.5-26.8a49.78,49.78,0,0,1-7.47-7.33c-3.4-4.21-2.06-7.63,3.32-7.52a68.35,68.35,0,0,1,17.17,2.59c36.19,10.16,69.94,25.56,100.5,47.63a46.12,46.12,0,0,1,8.05,7.43c1.37,1.61,1.77,4,2.6,6.11-2.08.77-4.17,2.17-6.26,2.17A38.05,38.05,0,0,1,116.42,173c-13.34-4.06-26.59-8.44-39.87-12.72-1.69-.54-3.34-1.18-5.83-2.06v5.65c0,28.16.07,56.33-.1,84.5,0,4.19.92,5.67,5.46,5.87,11.78.51,23.54,1.76,35.31,2.68,1.44.11,2.91,0,4.82,0,.67-8.15,1.41-16.07,2-24,.81-11.8,1.56-23.6,2.16-35.4.17-3.25,1.2-5.1,4.57-6a135,135,0,0,1,83.89,2.85c13.54,4.85,14.27,6.84,12.57,21.16-1.25,10.56-1.81,21.21-2.73,32.32h33.87c-.9-6.72-1.78-13.37-2.67-20-.87-6.42-1.54-12.89-2.71-19.25-.64-3.43.7-5.19,3.34-6.88,18.08-11.57,37.88-16,59.1-14,7.76.72,15.43,2.36,23.16,3.4,3.48.47,4.73,2.45,5,5.67,1,10.77,2.21,21.52,3,32.3.28,3.6,1.2,5.53,5.18,5.56,4.3,0,8.59.59,13.86,1,0-6,.19-11.52-.16-17-.06-1.05-2.08-2.33-3.45-2.88-3.68-1.46-7.49-2.58-12.59-4.29,5-1.68,8.83-3.08,12.7-4.17,2.7-.77,3.7-2.27,3.69-5-.06-20.17,0-40.33-.15-60.5,0-1.47-1.72-2.92-2.64-4.38-1.55,1.1-3.78,1.86-4.53,3.36a97.34,97.34,0,0,0-5.43,13.4c-3,9.23-9.85,13.17-18.83,13.7-15,.87-30,1.29-44.94,1.9l-4.88.23a6.09,6.09,0,0,0-.73,1.52C277,180.83,277,180.72,268,183c-11.63,2.94-23.11,6.31-33,13.85-14.36-10.9-30.83-16.26-48.31-18.88-3-.45-3.35-1.83-3.25-4.33.38-10.42.33-10.43-9.51-13.53-14.11-4.45-28.23-8.86-42.33-13.35-10.12-3.22-17.06-9-17.49-22.42-.63-19.45-2.55-38.86-3.94-58.28a16.39,16.39,0,0,0-.72-2.6c-3.7,2.37-6.87,4.71-10.33,6.49-1.56.81-3.68.5-5.55.7,1-1.64,1.74-3.58,3.1-4.84a39.82,39.82,0,0,1,6.19-4.19c4.5-2.83,8.73-5.38,10-11.55,1-5.12,5.31-6.44,11.07-6.19a15.59,15.59,0,0,0,8.66-2C152.89,28.79,173,15.41,193.17,2.13a14.6,14.6,0,0,1,3.41-2c.91-.28,2.78-.07,2.94.37a4.39,4.39,0,0,1-.28,3.44c-.68,1-2.07,1.61-3.18,2.34-20,13.19-40,26.43-60.13,39.52-2.92,1.9-3.46,3.3-2.46,7,3.32,12.51,5.71,25.26,8.39,37.94,1.24,5.85,2,11.82,3.61,17.57a8.24,8.24,0,0,0,4.46,4.92c18.81,6.14,37.71,12,56.6,17.86a17,17,0,0,0,4.88,1q44.22.06,88.45,0a22,22,0,0,0,3.69-.85c-2.78-1.44-4.7-2.27-6.44-3.38-4-2.54-4-5.49.62-7.18,7.29-2.66,14.86-5.24,22.5-6,7.87-.79,12.46-3.64,15.6-11,3.62-8.78,8.45-16.78,13.27-24.78,1.77-3,.24-4.14-1.45-5.77L295.16,22.3a86.58,86.58,0,0,1-6.74-6.67c-1-1.16-1-3.05-1.52-4.62,1.69.4,3.91.25,5,1.28,12.82,12.15,25.48,24.48,38.2,36.77,7.18,7,14.25,14,21.63,20.78a8,8,0,0,0,6,1.59c7.64-1.36,13.59,2.55,13.15,10.06-.33,5.48,1.55,9.09,5.42,12.47,1.18,1,1.36,3.2,2,4.85a51.42,51.42,0,0,1-5.45-1.44c-1-.39-1.81-1.33-3.29-2.49-1.79,5.38-3.43,10.28-5.42,16.25h10.62c18.84.25,37.6,1.39,56,6a38.83,38.83,0,0,1,9.25,3.59c4,2.2,4.05,5.2-.14,6.83-6.62,2.55-13.5,5-20.48,5.91-13,1.77-26.15,2.64-39.25,3.48-4.51.28-5.87,1.88-5.82,6.29.21,17.66.07,35.33.1,53,0,1.8.22,3.6.37,6,3.46-.46,6.53-.88,9.6-1.26,5.61-.68,11.21-1.46,16.84-1.95,3.32-.29,5.18-1.26,5-5.1-.25-7.54-.43-6.78,7.17-6.82h8.27c.16,2.11.3,3.72.41,5.33s.18,3.28.3,5.53c22.74,1.59,44.91,5.18,66.46,14.08-6.39,1.86-12.67,4.26-19.18,5.47-13.39,2.5-26.86,4.51-40.34,6.41-7.2,1-7.24.74-7.24,7.87q0,116-.08,232c0,2.3-.67,6.47-1.45,6.58a54.89,54.89,0,0,1-13.31-.15c-.56-.07-1-3.56-1-5.46q-.09-48.51-.06-97v-137c0-6.77,0-6.68-7-7.14-4-.26-7.94-.82-11.9-1.37s-7.83-1.23-12.77-2c0,5.7-.19,10.93.17,16.11.07,1,2.17,2.23,3.55,2.68,4.89,1.6,9.88,2.92,14.84,4.31,2.7.76,4,2.13,4,5.28q.11,31,.66,62c.06,3.54-1.09,5.23-4.61,5.58-4.3.42-8.56,1.28-12.86,1.59-4.47.33-6.09,2.16-6.05,6.88.21,28.66.1,57.33.09,86v54.49c0,5.95-.11,5.73-7.93,6-4.62.16-6.45-1.08-6.42-6.08.21-27.66.1-55.33.1-83v-3.44l-1-.15c-.62,3.45-1.2,6.91-1.87,10.35a119.44,119.44,0,0,1-100.58,95.88c-46.91,6.7-85.94-8.22-116.53-44.47a106.61,106.61,0,0,1-21.39-41.94c-.92-3.5-2.24-4.83-6-4.76C99,393.8,85.35,393.64,70.74,393.64ZM337,367.9c-.73-6.27-.94-12.64-2.27-18.77-13.44-62.12-80.88-95.71-139.46-69.6-54.63,24.34-74.94,89.12-43.59,139.13,20.33,32.42,60.9,51.84,103.27,44.62C301.17,455.43,336.43,414.78,337,367.9Zm13.11-47.31c3.32,12.06,6.43,23.33,9.53,34.61.41-10.22.29-20.37.47-30.52.07-4-1.51-5.46-5.35-4.78C353.1,320.18,351.53,320.37,350.1,320.59Z"/>
<path d="M277.1,74.83c0,22.26-18.27,39.9-41.26,39.86-22.81,0-41.36-17.94-41.42-40s19.07-40.49,41.79-40.33S277.1,52.47,277.1,74.83Z"/>
</g>
</svg>