<?xml version="1.0" encoding="UTF-8" standalone="no"?>
<!-- Created with Inkscape (http://www.inkscape.org/) -->
<svg xmlns:dc="http://purl.org/dc/elements/1.1/" xmlns:cc="http://creativecommons.org/ns#" xmlns:rdf="http://www.w3.org/1999/02/22-rdf-syntax-ns#" xmlns:svg="http://www.w3.org/2000/svg" xmlns="http://www.w3.org/2000/svg" xmlns:sodipodi="http://sodipodi.sourceforge.net/DTD/sodipodi-0.dtd" xmlns:inkscape="http://www.inkscape.org/namespaces/inkscape" width="1479.2766" height="708.66144" id="svg5049" version="1.1" inkscape:version="0.48.4 r9939" sodipodi:docname="Logo-Marie.svg">
  <defs id="defs5051">
    <clipPath clipPathUnits="userSpaceOnUse" id="clipPath4611">
      <path inkscape:connector-curvature="0" d="m 309.201,89.135 84.757,0 0,42.45 -84.757,0 0,-42.45 z" id="path4613"/>
    </clipPath>
    <clipPath clipPathUnits="userSpaceOnUse" id="clipPath4619">
      <path inkscape:connector-curvature="0" d="m 317.645,97.574 66.99,0 0,32.093 -66.99,0 0,-32.093 z" id="path4621"/>
    </clipPath>
  </defs>
  <sodipodi:namedview id="base" pagecolor="#ffd5ff" bordercolor="#666666" borderopacity="1.0" inkscape:pageopacity="0" inkscape:pageshadow="2" inkscape:zoom="0.35" inkscape:cx="314.01138" inkscape:cy="623.82328" inkscape:document-units="px" inkscape:current-layer="layer1" showgrid="false" fit-margin-top="0" fit-margin-left="0" fit-margin-right="0" fit-margin-bottom="0" inkscape:window-width="1024" inkscape:window-height="708" inkscape:window-x="-4" inkscape:window-y="-4" inkscape:window-maximized="1"/>
  <metadata id="metadata5054">
    <rdf:RDF>
      <cc:Work rdf:about="">
        <dc:format>image/svg+xml</dc:format>
        <dc:type rdf:resource="http://purl.org/dc/dcmitype/StillImage"/>
        <dc:title/>
      </cc:Work>
    </rdf:RDF>
  </metadata>
  <g inkscape:label="Calque 1" inkscape:groupmode="layer" id="layer1" transform="translate(-60.988619,367.67027)">
    <g transform="matrix(22.082183,0,0,-22.082183,-6953.3064,2495.6447)" id="g4609" clip-path="url(#clipPath4611)">
      <g id="g4615">
        <g id="g4617" clip-path="url(#clipPath4619)">
          <g id="g4627" transform="translate(337.7813,119.003)">
            <path inkscape:connector-curvature="0" d="m 0,0 c 0,0 0.078,0.164 0.126,0.265 -4.516,-5.547 -10.353,-11.611 -16.348,-11.587 -1.814,0.007 -2.696,0.804 -3.118,1.471 -0.544,0.862 -0.615,2.014 -0.181,2.934 l 0.12,0.253 0.069,-0.271 c 0.127,-0.488 0.358,-0.9 0.681,-1.224 0.731,-0.73 1.585,-1.056 2.771,-1.06 3.761,-0.015 7.962,2.744 12.844,8.435 l 0.894,1.052 C 0.539,3.44 1.649,4.754 5.66,4.695 L 5.906,4.69 5.728,4.52 C 3.926,2.792 1.109,-2.894 -0.179,-5.7 c 3.237,4.042 6.232,7.148 8.906,9.218 2.054,1.589 4.028,1.668 5.855,1.516 L 14.85,5.012 14.634,4.852 C 10.449,1.759 6.011,-4.765 5.999,-7.84 5.995,-8.711 6.27,-9.391 6.772,-9.757 7.21,-10.077 7.78,-10.134 8.423,-9.925 l 0.244,0.079 -0.125,-0.225 c -0.318,-0.578 -1.16,-1.198 -2.259,-1.194 -1.416,0.006 -2.842,0.985 -2.834,3.164 0.01,2.399 1.559,5.468 4.723,9.363 C 6.704,0.146 3.98,-2.995 1.924,-5.366 1.132,-6.281 0.447,-7.07 -0.015,-7.569 -1.438,-9.103 -2.502,-9.229 -4.59,-9.151 l -0.256,0.01 0.193,0.167 C -3.945,-8.357 -1.378,-2.921 0,0 z M 4.9,-2.792 C 3.712,-4.831 3.122,-6.588 3.116,-8.099 3.116,-8.141 3.12,-8.18 3.12,-8.222 3.118,-8.285 3.115,-8.348 3.114,-8.41 c -0.009,-2.407 1.584,-3.491 3.167,-3.498 1.235,-0.004 2.188,0.706 2.553,1.367 0,0 0.346,0.493 0.358,1.046 C 9.174,-9.359 8.97,-9.4 8.97,-9.4 L 8.319,-9.609 C 7.945,-9.73 7.407,-9.808 6.968,-9.488 c -0.381,0.279 -0.601,0.802 -0.63,1.482 0.145,3.05 4.438,9.283 8.493,12.281 l 0.929,0.687 c 0.135,0.116 0.101,0.233 0.101,0.233 -0.011,0.078 -0.1,0.077 -0.1,0.077 L 14.61,5.368 C 12.715,5.523 10.666,5.441 8.523,3.781 6.424,2.156 4.117,-0.12 1.648,-2.985 3.134,-0.042 4.809,2.87 5.958,3.97 l 0.764,0.733 c 0,0 0.088,0.072 0.089,0.194 0,0 0.011,0.105 -0.088,0.115 L 5.664,5.028 C 1.496,5.09 0.277,3.647 -2.397,0.483 L -3.29,-0.568 c -4.814,-5.612 -8.932,-8.333 -12.588,-8.319 -1.091,0.004 -1.874,0.301 -2.537,0.964 -0.282,0.281 -0.481,0.642 -0.594,1.073 -0.001,0 -0.102,0.382 -0.192,0.726 -0.088,0.398 -0.334,-0.056 -0.334,-0.056 l -0.288,-0.594 c -0.228,-0.485 -0.328,-1.027 -0.309,-1.565 -0.035,-0.698 0.137,-1.41 0.509,-1.999 0.466,-0.739 1.434,-1.62 3.399,-1.627 5.35,-0.021 10.45,4.571 14.599,9.323 -0.798,-1.66 -1.699,-3.49 -2.372,-4.713 -0.456,-0.768 -0.823,-1.281 -1.008,-1.479 l -0.612,-0.532 c -0.1,-0.095 -0.041,-0.256 0.028,-0.334 0.07,-0.08 0.985,-0.093 0.985,-0.093 2.146,-0.082 3.322,0.059 4.832,1.688 0.465,0.501 1.15,1.292 1.943,2.207 0.833,0.959 1.789,2.063 2.729,3.106" style="fill:#ffffff;fill-opacity:1;fill-rule:nonzero;stroke:none" id="path4629"/>
          </g>
          <g id="g4631" transform="translate(350.7058,113.2481)">
            <path inkscape:connector-curvature="0" d="m 0,0 c -1.115,-1.191 -2.108,-1.468 -2.269,-1.318 -0.025,0.023 -0.042,0.081 -0.044,0.157 -0.015,0.433 0.392,1.323 1.202,2.19 1.112,1.19 2.108,1.468 2.269,1.318 C 1.182,2.326 1.196,2.266 1.2,2.189 1.215,1.768 0.845,0.905 0,0 z m -1.355,1.257 c -0.795,-0.851 -1.313,-1.826 -1.291,-2.429 0.006,-0.173 0.056,-0.304 0.15,-0.39 0.431,-0.402 1.685,0.208 2.739,1.334 C 1.036,0.62 1.554,1.595 1.534,2.2 1.528,2.373 1.477,2.505 1.385,2.592 0.952,2.993 -0.303,2.381 -1.355,1.257" style="fill:#ffffff;fill-opacity:1;fill-rule:nonzero;stroke:none" id="path4633"/>
          </g>
          <g id="g4635" transform="translate(373.0793,114.4231)">
            <path inkscape:connector-curvature="0" d="m 0,0 c 0.834,1.172 1.943,2.073 2.456,2.071 0.006,0 0.006,0 0.011,-0.001 C 2.424,1.479 1.421,0.485 0,0 z m 2.805,2.102 c 0,0.189 -0.129,0.302 -0.348,0.303 -0.815,0.003 -2.35,-1.427 -3.192,-2.94 1.924,0.339 3.536,1.696 3.54,2.637" style="fill:#ffffff;fill-opacity:1;fill-rule:nonzero;stroke:none" id="path4637"/>
          </g>
          <g id="g4639" transform="translate(379.5672,112.0477)">
            <path inkscape:connector-curvature="0" d="m 0,0 c -1.423,-1.605 -4.15,-2.72 -6.635,-2.711 -1.212,0.005 -2.22,0.38 -2.836,1.057 -0.422,0.461 -0.647,1.048 -0.644,1.671 -1.334,-1.116 -2.488,-1.642 -3.614,-1.637 -0.559,0.002 -1.018,0.197 -1.329,0.564 -0.278,0.327 -0.425,0.783 -0.423,1.29 0,0.052 0.011,0.107 0.014,0.161 -1.502,-1.4 -2.816,-2.116 -3.904,-2.111 -1.089,0.004 -1.737,0.606 -1.734,1.609 0.003,0.699 0.521,1.505 1.02,2.284 0.406,0.631 0.789,1.228 0.79,1.629 0.001,0.228 -0.18,0.339 -0.5,0.514 0,0 -0.202,0.114 -0.2,0.113 l -0.206,0.113 c -1.664,-2.924 -4.15,-6.36 -6.64,-6.35 -0.421,0.002 -0.768,0.161 -1.001,0.462 -0.202,0.258 -0.307,0.606 -0.306,0.983 0.001,0.074 0.007,0.149 0.016,0.225 -1.34,-1.142 -2.75,-1.748 -4.096,-1.742 -1.068,0.004 -1.703,0.639 -1.699,1.698 0.007,1.738 2.723,5.203 6.28,5.188 0.659,-0.06 1.168,-0.314 1.452,-0.714 0.513,0.546 1.416,0.755 2.35,0.53 l 0.159,-0.038 -0.104,-0.125 c -0.926,-1.116 -2.306,-3.16 -2.31,-4.213 0,-0.209 0.044,-0.357 0.132,-0.441 0.079,-0.075 0.197,-0.106 0.363,-0.096 0.854,0.046 2.721,2.235 4.454,5.213 -0.211,0.209 -0.348,0.519 -0.346,0.823 0.001,0.396 0.218,0.946 0.699,1.283 0.34,0.237 0.932,0.452 1.826,0.13 l 0.081,-0.029 -0.017,-0.084 C -18.965,6.935 -19.32,6.083 -19.6,5.574 c 0.123,-0.068 0.471,-0.256 0.471,-0.256 l 1.041,-0.57 c 0.576,-0.334 1.052,-0.658 1.05,-1.25 -0.002,-0.343 -0.364,-0.901 -0.784,-1.547 -0.413,-0.637 -0.882,-1.358 -0.883,-1.757 -0.001,-0.241 0.103,-0.345 0.347,-0.346 0.733,-0.002 2.517,1.247 4.004,3.111 l 0.281,0.358 c 0.658,0.84 1.054,1.346 2.043,1.606 0.433,0.113 0.865,0.136 1.25,0.065 l 0.161,-0.028 -0.23,-0.309 c -0.773,-1.033 -2.382,-3.184 -2.386,-4.251 -0.002,-0.344 0.212,-0.55 0.571,-0.552 0.713,-0.002 1.834,0.733 3.073,2.018 0.176,0.326 0.386,0.639 0.626,0.928 1.217,1.465 3.571,3.018 5.535,3.01 C -2.466,5.8 -1.846,5.269 -1.849,4.451 -1.852,3.87 -2.223,3.159 -2.842,2.549 -3.794,1.615 -5.138,1.09 -6.532,1.109 c -0.387,0.005 -0.686,0.1 -0.9,0.272 -0.155,-0.371 -0.274,-0.819 -0.276,-1.247 -10e-4,-0.335 0.068,-0.656 0.248,-0.912 0.329,-0.469 0.975,-0.666 1.921,-0.586 2.644,0.227 5.195,2.363 5.919,4.215 L 0.448,3.025 0.558,2.873 C 1.169,2.015 0.718,0.813 0,0 z M 0.828,3.067 0.362,3.72 0.07,2.972 c -0.688,-1.759 -3.117,-3.788 -5.638,-4.004 -0.819,-0.069 -1.363,0.081 -1.619,0.446 -0.126,0.179 -0.189,0.42 -0.188,0.719 0,0.236 0.047,0.502 0.128,0.772 0.207,-0.079 0.442,-0.126 0.711,-0.129 1.481,-0.021 2.913,0.539 3.927,1.535 0.682,0.671 1.09,1.47 1.093,2.139 0.003,1.004 -0.765,1.683 -1.912,1.688 C -5.495,6.146 -7.955,4.53 -9.222,3.007 -9.461,2.718 -9.672,2.404 -9.854,2.074 c -1.353,-1.396 -2.337,-1.895 -2.808,-1.893 -0.2,0.001 -0.239,0.084 -0.239,0.217 0.004,0.957 1.626,3.128 2.32,4.054 l 0.551,0.74 -0.69,0.125 c -0.433,0.078 -0.916,0.054 -1.395,-0.072 -1.098,-0.288 -1.544,-0.859 -2.221,-1.722 10e-4,0 -0.281,-0.357 -0.281,-0.357 -1.476,-1.852 -3.173,-2.986 -3.739,-2.984 -0.007,0 -0.009,0 -0.016,0 0,0.004 0,0.01 0,0.01 0.002,0.302 0.5,1.069 0.829,1.577 0.468,0.719 0.837,1.286 0.838,1.727 0.004,0.834 -0.73,1.259 -1.215,1.541 -0.008,0.003 -1.05,0.573 -1.05,0.573 0,0 -0.086,0.048 -0.185,0.102 0.247,0.503 0.519,1.167 0.577,1.476 0,0 0.067,0.362 0.067,0.362 l -0.348,0.125 c -1.028,0.371 -1.726,0.113 -2.13,-0.17 -0.62,-0.432 -0.84,-1.108 -0.842,-1.555 -0.001,-0.298 0.1,-0.602 0.274,-0.853 -1.924,-3.258 -3.557,-4.823 -4.067,-4.852 -0.09,-0.006 -0.12,0.01 -0.12,0.01 -0.001,0.005 -0.022,0.064 -0.022,0.193 0.004,0.855 1.153,2.701 2.232,4.003 l 0.446,0.536 -0.678,0.163 c -0.908,0.219 -1.789,0.06 -2.4,-0.398 -0.353,0.325 -0.851,0.535 -1.451,0.591 l -0.014,0.001 -0.015,0 c -2.305,0.009 -3.993,-1.323 -4.794,-2.118 -1.103,-1.094 -1.817,-2.428 -1.82,-3.403 -0.005,-1.249 0.774,-2.029 2.031,-2.033 1.244,-0.005 2.546,0.481 3.796,1.412 0.057,-0.283 0.166,-0.541 0.328,-0.749 0.3,-0.384 0.736,-0.588 1.263,-0.59 2.572,-0.01 5.069,3.317 6.765,6.233 0.056,-0.031 0.118,-0.067 0.118,-0.067 0.102,-0.056 0.305,-0.166 0.331,-0.217 -0.002,-0.309 -0.392,-0.918 -0.737,-1.455 -0.525,-0.82 -1.07,-1.667 -1.073,-2.462 -0.005,-1.194 0.787,-1.939 2.066,-1.944 1.041,-0.004 2.256,0.584 3.616,1.742 0.075,-0.37 0.222,-0.704 0.444,-0.965 0.377,-0.443 0.924,-0.679 1.582,-0.682 1.07,-0.004 2.148,0.427 3.358,1.344 0.107,-0.47 0.325,-0.908 0.654,-1.269 0.68,-0.746 1.775,-1.16 3.081,-1.165 2.574,-0.011 5.405,1.151 6.887,2.823 0.529,0.6 0.924,1.398 0.927,2.16 0.002,0.397 -0.103,0.783 -0.349,1.128" style="fill:#ffffff;fill-opacity:1;fill-rule:nonzero;stroke:none" id="path4641"/>
          </g>
          <g id="g4643" transform="translate(370.8496,105.8407)">
            <path inkscape:connector-curvature="0" d="m 0,0 -0.139,0.049 c -5.703,2.026 -12.348,0.179 -18.21,-1.451 -3.244,-0.901 -6.309,-1.753 -8.676,-1.744 -1.9,0.007 -2.789,0.686 -3.302,1.287 -0.589,0.691 -0.804,1.632 -0.66,2.565 0.27,-1.137 1.299,-2.595 3.941,-2.605 2.014,-0.008 4.865,0.816 8.169,1.769 4.14,1.193 8.833,2.547 12.991,2.531 2.438,-0.01 4.5,-0.495 5.513,-0.904 C -0.187,1.442 0.026,1.333 0.026,1.333 0.025,1.296 0,0 0,0 z M -0.255,1.808 C -1.302,2.23 -3.404,2.724 -5.885,2.733 -10.089,2.75 -14.807,1.39 -18.969,0.19 L -18.97,0.189 c -3.278,-0.945 -6.107,-1.762 -8.075,-1.754 -2.763,0.011 -3.45,1.645 -3.617,2.348 l 0.063,-0.259 -0.153,0.551 c -0.31,0.874 -0.512,0.03 -0.512,0.03 l -0.053,-0.348 c -0.163,-1.061 0.106,-2.093 0.737,-2.832 0.801,-0.938 1.964,-1.399 3.554,-1.405 2.412,-0.009 5.498,0.849 8.765,1.758 5.815,1.615 12.406,3.448 18.01,1.456 0.001,0 0.576,-0.202 0.576,-0.202 L 0.364,1.538 0.18,1.628 C 0.156,1.64 -0.05,1.745 -0.255,1.808" style="fill:#ffffff;fill-opacity:1;fill-rule:nonzero;stroke:none" id="path4645"/>
          </g>
          <g id="g4647" transform="translate(350.9486,113.02)">
            <path inkscape:connector-curvature="0" d="m 0,0 c -1.053,-1.126 -2.308,-1.736 -2.739,-1.334 -0.094,0.086 -0.144,0.217 -0.15,0.39 -0.022,0.603 0.497,1.578 1.291,2.429 1.053,1.124 2.307,1.736 2.74,1.335 C 1.234,2.733 1.285,2.601 1.291,2.428 1.311,1.823 0.793,0.848 0,0 z M 24.588,3.808 C 24.806,3.807 24.936,3.694 24.935,3.505 24.932,2.564 23.319,1.207 21.396,0.869 c 0.841,1.513 2.377,2.942 3.192,2.939 z M 29.176,1.9 29.067,2.053 28.999,1.879 c -0.724,-1.853 -3.276,-3.989 -5.92,-4.215 -0.945,-0.08 -1.591,0.117 -1.92,0.586 -0.18,0.256 -0.25,0.576 -0.248,0.912 10e-4,0.428 0.12,0.875 0.275,1.246 0.215,-0.171 0.513,-0.266 0.9,-0.271 1.395,-0.019 2.738,0.506 3.69,1.44 0.619,0.609 0.991,1.32 0.993,1.902 0.004,0.818 -0.617,1.349 -1.58,1.353 -1.964,0.007 -4.318,-1.545 -5.535,-3.011 -0.24,-0.289 -0.45,-0.601 -0.626,-0.927 -1.239,-1.286 -2.36,-2.021 -3.073,-2.018 -0.359,0.001 -0.573,0.207 -0.571,0.551 0.004,1.067 1.613,3.218 2.385,4.252 l 0.23,0.308 -0.16,0.029 C 17.454,4.086 17.021,4.064 16.588,3.951 15.6,3.691 15.204,3.184 14.546,2.344 L 14.264,1.987 c -1.487,-1.865 -3.271,-3.114 -4.003,-3.111 -0.244,0.001 -0.348,0.105 -0.347,0.345 10e-4,0.4 0.47,1.121 0.882,1.758 0.42,0.645 0.783,1.204 0.784,1.546 0.003,0.592 -0.473,0.917 -1.049,1.251 L 9.49,4.345 c 0,0 -0.348,0.189 -0.471,0.256 0.28,0.51 0.634,1.361 0.692,1.675 L 9.727,6.36 9.647,6.39 C 8.753,6.712 8.16,6.496 7.821,6.26 7.34,5.923 7.123,5.372 7.121,4.976 7.12,4.673 7.257,4.362 7.468,4.153 5.734,1.176 3.868,-1.013 3.014,-1.059 2.848,-1.069 2.73,-1.038 2.651,-0.964 2.563,-0.88 2.518,-0.731 2.519,-0.523 2.523,0.531 3.903,2.574 4.828,3.691 L 4.932,3.815 4.774,3.853 C 3.84,4.079 2.937,3.869 2.424,3.324 2.139,3.724 1.631,3.977 0.972,4.038 c -3.558,0.014 -6.274,-3.45 -6.28,-5.188 -0.005,-1.059 0.631,-1.695 1.699,-1.699 1.345,-0.005 2.756,0.601 4.095,1.742 C 0.478,-1.182 0.472,-1.258 0.471,-1.331 0.47,-1.708 0.575,-2.056 0.777,-2.314 1.01,-2.616 1.357,-2.775 1.778,-2.776 4.268,-2.786 6.754,0.65 8.418,3.573 L 8.624,3.46 C 8.621,3.462 8.824,3.347 8.824,3.347 9.144,3.172 9.325,3.062 9.324,2.834 9.322,2.432 8.939,1.836 8.534,1.205 8.035,0.425 7.517,-0.38 7.514,-1.079 7.51,-2.083 8.159,-2.684 9.248,-2.689 c 1.088,-0.004 2.402,0.711 3.903,2.112 -0.002,-0.054 -0.013,-0.11 -0.013,-0.162 -0.002,-0.507 0.144,-0.962 0.422,-1.29 0.312,-0.367 0.771,-0.561 1.329,-0.563 1.127,-0.005 2.28,0.521 3.614,1.637 -0.002,-0.624 0.223,-1.211 0.644,-1.672 0.617,-0.676 1.624,-1.051 2.836,-1.056 2.485,-0.01 5.213,1.105 6.636,2.711 0.717,0.813 1.169,2.015 0.557,2.872" style="fill:#231f20;fill-opacity:1;fill-rule:nonzero;stroke:none" id="path4649"/>
          </g>
          <g id="g4651" transform="translate(344.5534,109.2457)">
            <path inkscape:connector-curvature="0" d="m 0,0 c -0.502,0.366 -0.777,1.046 -0.773,1.917 0.012,3.075 4.45,9.599 8.635,12.693 l 0.216,0.16 -0.268,0.022 c -1.828,0.151 -3.801,0.072 -5.855,-1.517 -2.674,-2.07 -5.669,-5.176 -8.906,-9.218 1.288,2.806 4.104,8.492 5.907,10.22 l 0.178,0.171 -0.246,0.004 c -4.011,0.059 -5.121,-1.254 -7.802,-4.426 L -9.808,8.973 c -4.883,-5.691 -9.084,-8.45 -12.844,-8.435 -1.186,0.004 -2.04,0.33 -2.771,1.06 -0.324,0.324 -0.554,0.736 -0.681,1.225 l -0.07,0.27 -0.119,-0.252 c -0.434,-0.921 -0.363,-2.073 0.181,-2.935 0.421,-0.667 1.304,-1.464 3.118,-1.471 5.995,-0.024 11.831,6.041 16.348,11.588 C -6.694,9.921 -6.772,9.757 -6.772,9.757 -8.15,6.836 -10.718,1.401 -11.426,0.784 l -0.192,-0.168 0.255,-0.009 c 2.089,-0.078 3.152,0.047 4.576,1.581 0.462,0.499 1.147,1.289 1.939,2.203 2.056,2.371 4.779,5.512 6.248,6.628 -3.164,-3.895 -4.713,-6.963 -4.723,-9.362 -0.008,-2.179 1.417,-3.159 2.834,-3.164 1.099,-0.005 1.941,0.616 2.259,1.194 L 1.895,-0.089 1.651,-0.168 C 1.008,-0.377 0.438,-0.32 0,0" style="fill:#231f20;fill-opacity:1;fill-rule:nonzero;stroke:none" id="path4653"/>
          </g>
          <g id="g4655" transform="translate(369.5379,121.4103)">
            <path inkscape:connector-curvature="0" d="m 0,0 c -0.153,-0.425 -0.421,-0.248 -0.421,-0.248 -0.031,0.26 0.096,0.497 0.29,0.697 l 0.02,-0.016 C 0.052,0.157 0.023,0.187 0,0 z m -1.492,-2.438 c -0.376,0.52 -0.579,1.204 -0.577,1.824 10e-4,0.301 0.051,0.588 0.153,0.832 0.195,0.469 0.56,0.758 1.056,0.836 0.087,0.013 0.205,-0.043 0.338,-0.16 -0.173,-0.205 -0.324,-0.469 -0.325,-0.695 0,-0.069 0.013,-0.133 0.043,-0.192 0.126,-0.245 0.414,-0.606 0.686,-0.594 0.145,0.005 0.261,0.112 0.347,0.316 0.048,0.114 0.072,0.236 0.072,0.363 C 0.302,0.27 0.253,0.459 0.16,0.649 0.448,0.85 0.759,0.969 0.955,1.014 1.163,1.063 1.333,1.018 1.463,0.882 1.664,0.669 1.733,0.285 1.732,-0.053 1.731,-0.254 1.705,-0.438 1.669,-0.563 1.528,-1.041 1.096,-1.397 0.783,-1.624 0.035,-2.165 -0.863,-2.365 -1.492,-2.438 z m 3.665,2.2 0,0 C 2.111,0.323 1.649,1.165 1.148,1.411 0.62,1.671 0.146,1.424 -0.21,1.18 c 0,0 -0.002,-0.003 -0.004,-0.004 -0.032,0.031 -0.14,0.137 -0.14,0.137 -0.258,0.23 -0.55,0.298 -0.867,0.202 -0.582,-0.178 -1.13,-0.908 -1.276,-1.478 -0.035,-0.136 -0.051,-0.273 -0.051,-0.411 -0.003,-0.85 0.573,-1.703 0.867,-2.082 -0.086,-0.004 -0.608,-0.027 -0.608,-0.027 l 0.019,-0.043 c 0.021,-0.048 0.215,-0.467 0.395,-0.468 1.16,-0.006 2.77,0.39 3.563,1.269 0.383,0.425 0.546,0.926 0.485,1.487" style="fill:#ed1c24;fill-opacity:1;fill-rule:nonzero;stroke:none" id="path4657"/>
          </g>
          <g id="g4659" transform="translate(364.9633,108.2417)">
            <path inkscape:connector-curvature="0" d="m 0,0 c -4.158,0.016 -8.85,-1.338 -12.991,-2.531 -3.304,-0.953 -6.155,-1.777 -8.169,-1.769 -2.641,0.01 -3.671,1.468 -3.941,2.605 -0.144,-0.933 0.071,-1.874 0.661,-2.565 0.512,-0.601 1.401,-1.28 3.301,-1.287 2.367,-0.009 5.432,0.843 8.676,1.744 5.862,1.63 12.507,3.477 18.21,1.451 l 0.139,-0.049 c 0,0 0.026,1.296 0.026,1.333 0,0 -0.212,0.109 -0.399,0.164 C 4.5,-0.495 2.438,-0.01 0,0" style="fill:#ed1c24;fill-opacity:1;fill-rule:nonzero;stroke:none" id="path4661"/>
          </g>
        </g>
      </g>
    </g>
  </g>
<script xmlns=""/></svg>