<?xml version="1.0" encoding="UTF-8" standalone="no"?>
<!-- Generator: Adobe Illustrator 23.0.0, SVG Export Plug-In . SVG Version: 6.00 Build 0)  -->
<svg xmlns:dc="http://purl.org/dc/elements/1.1/" xmlns:cc="http://creativecommons.org/ns#" xmlns:rdf="http://www.w3.org/1999/02/22-rdf-syntax-ns#" xmlns:svg="http://www.w3.org/2000/svg" xmlns="http://www.w3.org/2000/svg" xmlns:sodipodi="http://sodipodi.sourceforge.net/DTD/sodipodi-0.dtd" xmlns:inkscape="http://www.inkscape.org/namespaces/inkscape" version="1.1" id="Calque_1" x="0px" y="0px" viewBox="0 0 248.2 57.200001" xml:space="preserve" sodipodi:docname="logo_famileo_RVB.svg" width="248.2" height="57.200001" inkscape:version="0.92.3 (5aff6ba, 2018-11-25)"><metadata id="metadata13"><rdf:RDF><cc:Work rdf:about=""><dc:format>image/svg+xml</dc:format><dc:type rdf:resource="http://purl.org/dc/dcmitype/StillImage"/><dc:title/></cc:Work></rdf:RDF></metadata><defs id="defs11"/><sodipodi:namedview pagecolor="#ffffff" bordercolor="#666666" borderopacity="1" objecttolerance="10" gridtolerance="10" guidetolerance="10" inkscape:pageopacity="0" inkscape:pageshadow="2" inkscape:window-width="1920" inkscape:window-height="999" id="namedview9" showgrid="false" fit-margin-top="0" fit-margin-left="0" fit-margin-right="0" fit-margin-bottom="0" inkscape:zoom="1.6137931" inkscape:cx="90.018803" inkscape:cy="28.6" inkscape:window-x="0" inkscape:window-y="0" inkscape:window-maximized="1" inkscape:current-layer="Calque_1"/>
<style type="text/css" id="style2">
	.st0{fill:#16648A;}
	.st1{fill:#EA6025;}
</style>
<path class="st0" d="m 16.4,20.3 h 7.7 v 7.6 H 16.4 V 56.5 H 6.9 V 27.9 H 0 V 20.3 H 6.9 V 17.4 C 6.9,6.9 12.2,0.6 22.3,0.6 h 3.9 v 9.1 h -3.9 c -4.4,0 -5.9,3.3 -5.9,7.7 z m 39.2,0 H 65 V 56.4 H 55.6 V 51.8 C 53.3,55.5 47.9,57.1 44.4,57.1 34.9,57.1 26,49.8 26,38.3 26,26.7 34.9,19.5 44.4,19.5 c 3.3,0 8.6,1.2 11.2,5.3 z m 0,18 c 0,-6.3 -5,-9.8 -9.9,-9.8 -5.2,0 -10,3.9 -10,9.8 0,5.8 4.8,9.8 10,9.8 5.1,0 9.9,-3.6 9.9,-9.8 z m 60.3,-18.8 c -2.9,0 -8,0.9 -11.4,6.8 -2,-4.4 -5.8,-6.4 -11.5,-6.7 -3.4,0 -8.4,1.6 -10.4,6 v -5.3 h -9.4 v 36.1 h 9.4 V 37.1 c 0,-6.2 3.7,-8.4 7.6,-8.4 3.7,0 6.6,2.8 6.7,7.8 v 19.9 h 9.4 V 37.1 c 0,-5.5 3.1,-8.4 7.4,-8.4 3.9,0 6.8,2.9 6.8,8 v 19.7 h 9.4 V 35.7 c -0.1,-10.6 -5.3,-16.2 -14,-16.2 z M 155,56.4 h 9.4 V 0.6 H 155 Z m 52.4,-18.2 c 0,0.9 -0.1,2.4 -0.2,3.3 h -27.6 c 0.6,4.8 4.6,7.7 10,7.7 3.6,0 7.4,-1.5 9.1,-4.6 2.2,1.2 4.9,2.6 7.2,3.9 -3.3,6.2 -10.2,8.7 -16.9,8.7 -10.3,0 -18.7,-7.6 -18.7,-19 0,-11.4 8.4,-18.7 18.7,-18.7 10.3,0 18.4,7.3 18.4,18.7 z M 198.2,35 c -0.7,-5 -4.4,-7.7 -9.1,-7.7 -5,0 -8.8,2.8 -9.5,7.7 z m 50,3.2 c 0,11.4 -8.6,18.9 -18.8,18.9 -10.3,0 -18.8,-7.5 -18.8,-18.9 0,-11.4 8.5,-18.7 18.8,-18.7 10.2,0 18.8,7.3 18.8,18.7 z m -9.4,0 c 0,-5.7 -4.3,-9.4 -9.4,-9.4 -5.2,0 -9.4,3.7 -9.4,9.4 0,5.9 4.3,9.7 9.4,9.7 5.2,0 9.4,-3.8 9.4,-9.7 z" id="path4" inkscape:connector-curvature="0" style="fill:#16648a"/>
<path class="st1" d="m 134.8,6.9 c 0,-3.8 3.3,-6.9 7.3,-6.9 4,0 7.3,3.1 7.3,6.9 0,3.8 -3.3,6.9 -7.3,6.9 -4,0 -7.3,-3.1 -7.3,-6.9 z M 155,19.8 c -3.2,-1.1 -6.6,-1.7 -10.1,-1.7 -6.6,0 -13.1,2.2 -18.4,6 0.8,1 1.5,2.2 2,3.6 0,0.1 0.1,0.2 0.1,0.3 2.6,-2.1 5.7,-3.7 8.9,-4.7 v 33.1 h 9.4 V 22.3 c 2.8,0.2 5.5,0.9 8.1,2 z m -31.4,11.9 c 0,1.8 -1.5,3.3 -3.3,3.3 -1.8,0 -3.3,-1.5 -3.3,-3.3 0,-1.8 1.5,-3.3 3.3,-3.3 1.9,0 3.3,1.5 3.3,3.3 z m 43.1,-6.2 c 0,1.8 -1.5,3.3 -3.3,3.3 -1.8,0 -3.3,-1.5 -3.3,-3.3 0,-1.8 1.5,-3.3 3.3,-3.3 1.8,0 3.3,1.5 3.3,3.3 z" id="path6" inkscape:connector-curvature="0" style="fill:#ea6025"/>
<script xmlns=""/></svg>