<svg xmlns="http://www.w3.org/2000/svg" viewBox="0 0 234 234"><defs><style>.cls-1{fill:#4d4d4d;}.cls-2{fill:#e0e0e0;}.cls-3{fill:#e8e8e8;}</style></defs><title>icon_sublime</title><g id="Calque_2" data-name="Calque 2"><g id="logos"><g id="sublime"><path id="fond" class="cls-1" d="M41.44,0H192.56C215.47,0,234,19,234,42.5v149c0,23.5-18.53,42.5-41.44,42.5H41.44C18.53,234,0,215,0,191.5V42.5C0,19,18.53,0,41.44,0Z"/><g id="icon"><path class="cls-2" d="M53.94,70.67,176.39,31.8s8.69-4.56,6.6,3.87l.31,37.46s1.52,5.5-6,6.86L127.53,95.55Z"/><path class="cls-2" d="M53.94,70.67s-4.81,1.15-3.4,9.37l-.26,36.1s-.42,4.55,8.22,6.39l121.35,39.08s4.08,1.62,3.61-3.41V118s1.16-4.14-6.39-6.86L127.53,95.55Z"/><path class="cls-3" d="M107.42,138.24,55.78,154s-6.24.21-5.5,11.89-.05,35.2-.05,35.2.52,4.35,6.49,1.84l122.45-39.08s4.34-1.1.68-2.31S107.42,138.24,107.42,138.24Z"/></g></g></g></g></svg>