<svg xmlns="http://www.w3.org/2000/svg" viewBox="0 0 234 234"><defs><style>.cls-1{fill:#888;}.cls-2{fill:#fff;}</style></defs><title>icon_html</title><g id="Calque_2" data-name="Calque 2"><g id="logos"><g id="html5"><path id="fond-8" class="cls-1" d="M41.44,0H192.56C215.47,0,234,19,234,42.5v149c0,23.5-18.53,42.5-41.44,42.5H41.44C18.53,234,0,215,0,191.5V42.5C0,19,18.53,0,41.44,0Z"/><g id="icon-3"><polygon id="H" class="cls-2" points="75.5 48.12 82.06 48.12 82.06 55.4 89.7 55.4 89.7 33 82.06 33 82.06 40.28 75.5 40.28 75.5 33 67.86 33 67.86 55.4 75.5 55.4 75.5 48.12"/><polygon id="T" class="cls-2" points="101.71 55.4 108.81 55.4 108.81 40.28 115.36 40.28 115.36 33 95.16 33 95.16 40.28 101.71 40.28 101.71 55.4"/><polygon id="M" class="cls-2" points="126.83 44.2 131.74 52.6 131.74 52.6 136.66 44.2 136.66 55.4 144.3 55.4 144.3 33 136.66 33 131.74 40.84 126.83 33 119.18 33 119.18 55.4 126.83 55.4 126.83 44.2"/><polygon id="L" class="cls-2" points="166.14 48.12 155.77 48.12 155.77 33 148.12 33 148.12 55.4 166.14 55.4 166.14 48.12"/><path id="logo" class="cls-2" d="M56.94,66.6,67.86,189.8,117,201l49.14-11.2L177.06,66.6Zm95.55,39.2H95.16L97.89,117h51.87l-5.46,50.4L117,178.6,89.7,167.4,85.33,145h15.29l2.73,11.2L117,161.8l13.65-5.6,2.73-22.4H84.24L78.78,89h76.44Z"/></g></g></g></g></svg>