<svg xmlns="http://www.w3.org/2000/svg" viewBox="0 0 234 234"><defs><style>.cls-1{fill:#bcbcbc;}.cls-2{fill:#fff;}</style></defs><title>icon_js</title><g id="Calque_2" data-name="Calque 2"><g id="logos"><g id="js"><path id="fond-13" class="cls-1" d="M41.44,0H192.56C215.47,0,234,19,234,42.5v149c0,23.5-18.53,42.5-41.44,42.5H41.44C18.53,234,0,215,0,191.5V42.5C0,19,18.53,0,41.44,0Z"/><g id="logo-6"><path id="path80" class="cls-2" d="M90.33,199.91l-25-7.16-5.55-63.68c-3-35-5.56-64.41-5.57-65.3V62.16H178.42v1c0,1.35-10.9,127.69-11.13,128.78-.16.79-3.17,1.74-25.46,8.07-13.91,4-25.57,7.17-25.92,7.14s-11.86-3.27-25.58-7.21Zm41.89-24.76c8.62-2.46,15.8-4.68,15.95-4.93s1.18-11.06,2.29-24,2.11-23.92,2.22-24.33c.19-.71-1.28-.75-26.59-.75H99.3l1.14-12.37c.63-6.81,1.15-12.39,1.17-12.41s4-.15,8.74-.29c7.85-.22,24,.42,24.58,1,.2.2,1.54,13.6,1.54,15.43,0,.9.11.91,8.12.91h8.13l-.19-1.83c-.1-1-.79-8.79-1.53-17.31l-1.34-15.49-31.35-.11c-24.94-.09-31.35,0-31.35.43s-.18,2.18-.41,4.19c-.53,4.87-4.62,51.9-4.62,53.2v1h53.35L135,139.1c-.13.89-.54,5.39-.92,10a81.41,81.41,0,0,1-1,8.66c-.39.38-16.08,4.68-17.06,4.68-.46,0-4.51-1-9-2.31l-8.18-2.3-.3-3.61c-.17-2-.42-4.82-.56-6.3l-.26-2.69H81.93v1.62c0,3,1.94,23.34,2.21,23.62s30.81,9.12,31.75,9.15c.35,0,7.69-2,16.31-4.44Z"/><path id="JS-2" class="cls-2" d="M93.68,46.89V42.8H105V26.88h8V51H93.68Zm23.07.86V44.52H122a28.82,28.82,0,0,0,5.25-.24c0-.14-2.36-2.87-5.25-6.08l-5.24-5.82v-5.5h21.81v6.43l-5.12.12-5.12.12,5.33,5.89L139,45.32V51H116.75Z"/></g></g></g></g></svg>