<svg xmlns="http://www.w3.org/2000/svg" viewBox="0 0 234 234"><defs><style>.cls-1{fill:silver;}.cls-2{fill:#fff;}</style></defs><title>icon_ai</title><g id="Calque_2" data-name="Calque 2"><g id="logos"><g id="ai"><path id="fond" class="cls-1" d="M41.44,0H192.56C215.47,0,234,19,234,42.5v149c0,23.5-18.53,42.5-41.44,42.5H41.44C18.53,234,0,215,0,191.5V42.5C0,19,18.53,0,41.44,0Z"/><g id="Ai-2" data-name="Ai"><path id="A" class="cls-2" d="M113.1,140H76.83l-7.41,23.5a1.71,1.71,0,0,1-1.85,1.4H49.24c-1.07,0-1.37-.6-1.07-1.8L79.56,70.4c.29-1,.59-2.1,1-3.3a36.29,36.29,0,0,0,.58-6.5,1,1,0,0,1,.78-1.1h25.25c.78,0,1.17.3,1.27.8L144,163.3c.29,1.1,0,1.6-1,1.6H122.66a1.47,1.47,0,0,1-1.56-1.1ZM82.48,119.7h24.77c-.58-2.1-1.37-4.6-2.24-7.2s-1.76-5.6-2.63-8.6-1.86-6.1-2.83-9.2-1.86-6-2.63-8.9-1.47-5.4-2.15-7.8h-.19a124.5,124.5,0,0,1-3.32,12.9c-1.46,4.8-2.92,9.8-4.48,14.8C85.41,110.8,84,115.5,82.48,119.7Z"/><path id="i" class="cls-2" d="M165.75,77a11.9,11.9,0,0,1-8.68-3.5,13.17,13.17,0,0,1-3.31-9.2,11.9,11.9,0,0,1,3.51-8.9A12.31,12.31,0,0,1,166,51.9a11.53,11.53,0,0,1,8.87,3.5A12.87,12.87,0,0,1,178,64.3a12.88,12.88,0,0,1-3.42,9.2,11.28,11.28,0,0,1-8.87,3.5Zm-10.92,86.8v-77c0-1,.39-1.4,1.27-1.4h19.3c.88,0,1.27.5,1.27,1.4v77c0,1.1-.39,1.6-1.27,1.6H156.29C155.32,165.4,154.83,164.8,154.83,163.8Z"/></g></g></g></g></svg>