<svg xmlns="http://www.w3.org/2000/svg" viewBox="0 0 234 234"><defs><style>.cls-1{fill:#a5a5a5;}.cls-2{fill:#565656;}.cls-3,.cls-4{fill:#fff;}.cls-3{fill-opacity:0.35;}</style></defs><title>icon_iterm</title><g id="Calque_2" data-name="Calque 2"><g id="logos"><g id="iterm"><rect id="fond" class="cls-1" width="234" height="234" rx="46.77" ry="46.77"/><path id="fond-2" data-name="fond" class="cls-2" d="M46.6,18.28H187.4a28.2,28.2,0,0,1,28.19,28.2v140.9a28.2,28.2,0,0,1-28.19,28.2H46.6a28.2,28.2,0,0,1-28.19-28.2V46.48A28.2,28.2,0,0,1,46.6,18.28Z"/><g id="content"><rect class="cls-3" x="73.64" y="31.35" width="26.73" height="53.48"/><path class="cls-4" d="M45.78,75.71a27.4,27.4,0,0,1-3.93-.59c-1.18-.32-2.27-.65-3.28-1s-1.81-.69-2.55-1a12,12,0,0,1-1.57-.83l2.81-5.22a14,14,0,0,0,1.58.83c.74.36,1.57.73,2.48,1.13a23.34,23.34,0,0,0,3,1,10.8,10.8,0,0,0,2.82.41q6.55,0,6.55-4.92a3.76,3.76,0,0,0-.46-2A3.37,3.37,0,0,0,52,62.17a6.82,6.82,0,0,0-2-1c-.74-.32-1.59-.63-2.55-1a51.18,51.18,0,0,1-4.92-2,17.93,17.93,0,0,1-3.6-2.37,9,9,0,0,1-2.29-3A8.55,8.55,0,0,1,35.84,49a7.56,7.56,0,0,1,.72-3.21,8.68,8.68,0,0,1,2-2.73A11.39,11.39,0,0,1,41.71,41a14.07,14.07,0,0,1,4.06-1.25v-8.4h5.37v8.41a26.08,26.08,0,0,1,3.28.54,27.13,27.13,0,0,1,2.81.77,15.8,15.8,0,0,1,2.1.83l1.31.53L58,47.3c-.35-.16-.85-.36-1.51-.6s-1.31-.55-2.09-.83a22.56,22.56,0,0,0-2.56-.71,12.73,12.73,0,0,0-2.75-.3,9.35,9.35,0,0,0-4,.83,2.73,2.73,0,0,0-1.7,2.67,4.8,4.8,0,0,0,.46,2.14,5.64,5.64,0,0,0,1.44,1.6,14.22,14.22,0,0,0,2.36,1.37c1,.39,2,.79,3.27,1.18a45.71,45.71,0,0,1,4.33,1.84,14.73,14.73,0,0,1,3.21,2.14,7.61,7.61,0,0,1,2,2.73A8.45,8.45,0,0,1,61.17,65a9.48,9.48,0,0,1-.65,3.45,9.18,9.18,0,0,1-1.9,3.08A11.8,11.8,0,0,1,55.47,74a14.36,14.36,0,0,1-4.32,1.48v8.77H45.78Z"/></g></g></g></g></svg>