<svg xmlns="http://www.w3.org/2000/svg" viewBox="0 0 234 234"><defs><style>.cls-1{fill:#e7e7e7;}.cls-2{fill:#3f3f3f;}</style></defs><title>icon_php</title><g id="Calque_2" data-name="Calque 2"><g id="logos"><g id="php"><path id="fond" class="cls-1" d="M41.44,0H192.56C215.47,0,234,19,234,42.5v149c0,23.5-18.53,42.5-41.44,42.5H41.44C18.53,234,0,215,0,191.5V42.5C0,19,18.53,0,41.44,0Z"/><g id="logo"><path id="p-2" class="cls-2" d="M62.8,100c5.78,0,9.62,1.09,11.55,3.28s2.38,5.94,1.37,11.25q-1.57,8.31-6.07,11.86T56,130H46.71l5.68-30Zm-37,60.26H41l3.61-19h13a45.63,45.63,0,0,0,14.18-1.86,26.68,26.68,0,0,0,10.12-6.23,31.32,31.32,0,0,0,9.54-17.52q2.42-12.74-3.64-19.83t-19.23-7.1H39.33Z"/><path id="h-2" class="cls-2" d="M102.59,69.71h15.08l-3.61,19H127.5q12.67,0,17.49,4.54t2.88,14.7l-6.31,33.3H126.25l6-31.66c.68-3.61.43-6.06-.76-7.37s-3.71-2-7.56-2H111.88l-7.77,41H89Z"/><path id="p-3" class="cls-2" d="M181.42,100q8.66,0,11.55,3.28c1.92,2.18,2.38,5.94,1.37,11.25q-1.58,8.31-6.07,11.86T174.58,130h-9.25L171,100Zm-37,60.26h15.2l3.6-19h13a45.63,45.63,0,0,0,14.18-1.86,26.68,26.68,0,0,0,10.12-6.23,31.32,31.32,0,0,0,9.54-17.52q2.41-12.74-3.64-19.83t-19.23-7.1H158Z"/></g></g></g></g></svg>