<svg xmlns="http://www.w3.org/2000/svg" viewBox="0 0 234 234"><defs><style>.cls-1{fill:#444;}.cls-2{fill:#e0e0e0;}</style></defs><title>icon_ps</title><g id="Calque_2" data-name="Calque 2"><g id="logos"><g id="ps"><path id="fond" class="cls-1" d="M41.44,0H192.56C215.47,0,234,19,234,42.5v149c0,23.5-18.53,42.5-41.44,42.5H41.44C18.53,234,0,215,0,191.5V42.5C0,19,18.53,0,41.44,0Z"/><g id="Ps-2" data-name="Ps"><path id="P" class="cls-2" d="M52.65,164.1V61.2c0-.7.29-1.1,1-1.1,1.66,0,3.22,0,5.46-.1s4.78-.1,7.41-.2S72,59.7,75,59.6s5.94-.1,8.87-.1c8,0,14.62,1,20.08,3.1a34.65,34.65,0,0,1,13,8.2,32,32,0,0,1,7.12,11.4,39.18,39.18,0,0,1,2.24,13q0,12.9-5.85,21.3a33.48,33.48,0,0,1-15.7,12.2c-6.63,2.5-13.94,3.4-21.94,3.4-2.34,0-3.9,0-4.87-.1s-2.34-.1-4.19-.1V164a1.25,1.25,0,0,1-1.06,1.4H53.82C53,165.4,52.65,165,52.65,164.1ZM73.91,79.4V113c1.36.1,2.63.2,3.8.2h5.16a35.66,35.66,0,0,0,11.22-1.8,16.72,16.72,0,0,0,8-5.3c2-2.5,3-5.9,3-10.3a16.72,16.72,0,0,0-2.24-8.9A14.32,14.32,0,0,0,96,81.2a28,28,0,0,0-11.51-2c-2.53,0-4.78,0-6.63.1a21.4,21.4,0,0,0-4,.1Z"/><path id="s" class="cls-2" d="M187.2,106.9a34,34,0,0,0-9.36-3.4,50.15,50.15,0,0,0-10.92-1.3,19.27,19.27,0,0,0-5.85.7,5,5,0,0,0-3,2,5.36,5.36,0,0,0-.78,2.7,4.5,4.5,0,0,0,1,2.6,11.11,11.11,0,0,0,3.32,2.7c2.24,1.2,4.58,2.3,6.92,3.3a70.32,70.32,0,0,1,15,7.3,23.08,23.08,0,0,1,7.71,8.3,22,22,0,0,1,2.24,10.3,23.75,23.75,0,0,1-3.8,13.3,24.57,24.57,0,0,1-10.92,8.9c-4.78,2.1-10.63,3.2-17.65,3.2a65.59,65.59,0,0,1-13.26-1.3,38.69,38.69,0,0,1-9.95-3.2,2,2,0,0,1-1.07-1.9V143.7a1.11,1.11,0,0,1,.39-.9.73.73,0,0,1,.88.1,40.94,40.94,0,0,0,12.09,4.9,44.22,44.22,0,0,0,11.5,1.5c3.71,0,6.34-.5,8.1-1.4a4.66,4.66,0,0,0,2.63-4.2c0-1.4-.78-2.7-2.34-4s-4.78-2.8-9.56-4.7a59.34,59.34,0,0,1-13.84-7.2,25.65,25.65,0,0,1-7.41-8.5A21.87,21.87,0,0,1,137,109.1a23.29,23.29,0,0,1,13.54-21.3c4.58-2.4,10.33-3.5,17.26-3.5a81.49,81.49,0,0,1,12.09.9,33.4,33.4,0,0,1,8.38,2.3,1.74,1.74,0,0,1,1,.9,5.36,5.36,0,0,1,.19,1.2v16.3a1.22,1.22,0,0,1-.49,1A2.57,2.57,0,0,1,187.2,106.9Z"/></g></g></g></g></svg>