<svg xmlns="http://www.w3.org/2000/svg" viewBox="0 0 234 234"><defs><style>.cls-1{fill:#838383;}.cls-2{fill:#fff;}</style></defs><title>icon_css3</title><g id="Calque_2" data-name="Calque 2"><g id="logos"><g id="css3"><path id="fond-7" class="cls-1" d="M41.44,0H192.56C215.47,0,234,19,234,42.5v149c0,23.5-18.53,42.5-41.44,42.5H41.44C18.53,234,0,215,0,191.5V42.5C0,19,18.53,0,41.44,0Z"/><g id="icon-2"><polygon id="polygon3962" class="cls-2" points="53.31 61.53 65.25 194.21 117 208.5 168.74 194.21 180.69 61.53 53.31 61.53"/><path id="path4016" class="cls-2" d="M79.21,49.93H98.87V42H87.63V34.1H98.87V25.5H79.21Zm28.06-15.79c2.63,2.7,4,4,7.8,7.89h-7.8v7.89h19.66V42l-7.86-7.9h7.86V25.5H107.27Zm47.52-8.64H135.13v8.64c2.63,2.7,4,4,7.81,7.89h-7.81v7.89h19.66V42l-7.85-7.9h7.85Z"/><path id="path4169" class="cls-1" d="M76.53,88.32l2.32,16.18,40.24-.3L80.3,121l1,16h55L135,158.09l-17.66,5.49L99.4,158.53l-1-12.62H82.61l2,24.8,32.27,9.64L149.77,171l4-50h-37.2l38.65-16.77,1.16-16Z"/></g></g></g></g></svg>