<svg xmlns="http://www.w3.org/2000/svg" viewBox="0 0 234 234"><defs><style>.cls-1{fill:#8d8d8d;}.cls-2{fill:#fafafa;}</style></defs><title>icon_dw</title><g id="Calque_2" data-name="Calque 2"><g id="logos"><g id="dw"><path id="fond" class="cls-1" d="M41.44,0H192.56C215.47,0,234,19,234,42.5v149c0,23.5-18.53,42.5-41.44,42.5H41.44C18.53,234,0,215,0,191.5V42.5C0,19,18.53,0,41.44,0Z"/><g id="Dw-2" data-name="Dw"><path id="D" class="cls-2" d="M22.23,164V62a1.2,1.2,0,0,1,1-1.3h.1c1.46-.1,3.71-.2,6.53-.2s6.25-.1,10.14-.2,8-.1,12.39-.1c11.89,0,21.84,2.2,29.64,6.6A43.28,43.28,0,0,1,99.64,84.9c3.9,7.7,5.85,16.5,5.85,26.5a63.08,63.08,0,0,1-3,20.5,49.32,49.32,0,0,1-8.38,15.4,51.23,51.23,0,0,1-12,10.7,52.7,52.7,0,0,1-14.33,6.3,58.41,58.41,0,0,1-15,2h-11c-3.9,0-7.6,0-10.92-.1s-5.95-.1-7.61-.2c-.68,0-1-.6-1-1.6ZM42.8,79.6v66.7c1,0,2,0,3,.1s1.85.1,2.72.2a31.53,31.53,0,0,0,3.22.1A35.7,35.7,0,0,0,65,144.4a26.12,26.12,0,0,0,10.24-6.8,31,31,0,0,0,6.53-11.1,48.67,48.67,0,0,0,2.34-15A40.72,40.72,0,0,0,81.9,97.4,25.71,25.71,0,0,0,65.23,81.2a40.16,40.16,0,0,0-12.87-1.9c-2,0-3.61,0-5,.1S44.46,79.5,42.8,79.6Z"/><path id="w" class="cls-2" d="M193.05,165H174.82a1.32,1.32,0,0,1-1.17-.4,3.63,3.63,0,0,1-.59-1.2c-1.85-8-3.41-15.2-4.68-21.3s-2.34-11.4-3.12-15.7-1.46-7.9-2-10.9-1-5.5-1.26-7.6h-.1c-1,4.4-1.85,8.7-2.73,12.8s-1.76,8.3-2.73,12.5-2,8.8-3.32,13.8-2.53,10.5-4,16.4c-.2,1.1-.69,1.6-1.56,1.6H129.28a2.11,2.11,0,0,1-1.36-.3,4.3,4.3,0,0,1-.68-1.1l-19-77.3c-.29-.9.1-1.3,1.17-1.3h18.43c.88,0,1.37.3,1.46,1,1.95,8.8,3.61,16.4,4.88,22.8s2.34,11.8,3,16.3,1.37,8.2,1.85,11,.88,5.2,1.17,7h.3c.19-1.6.39-3.1.68-4.7.39-1.9.87-4.4,1.46-7.5s1.27-6.7,2.15-10.9,1.85-9,3-14.6,2.63-11.8,4.48-18.9a3.27,3.27,0,0,1,.39-1.3c.1-.2.49-.3,1.08-.3h19.11c.58,0,.87.4,1,1.1,1.66,7.3,3,13.7,4.19,19.2s2.05,10.4,2.93,14.7,1.46,7.9,1.85,10.9.88,5.6,1.27,7.7a46.24,46.24,0,0,1,.68,5.1h.29c.49-2,.88-4.4,1.27-7.1s.88-5.7,1.56-9.1,1.27-7.1,2.05-11.2,1.66-8.6,2.73-13.7,2.24-10.5,3.61-16.4c.19-.9.58-1.3,1.27-1.3h17c.87,0,1.17.5,1,1.4l-21.06,77.1a2.44,2.44,0,0,1-.58,1.1C193.93,164.9,193.54,165.1,193.05,165Z"/></g></g></g></g></svg>