<svg xmlns="http://www.w3.org/2000/svg" viewBox="0 0 234 234"><defs><style>.cls-1{fill:#eaeaea;}.cls-2{fill:#1e1e1e;}</style></defs><title>icon_github</title><g id="Calque_2" data-name="Calque 2"><g id="logos"><g id="github"><path id="fond" class="cls-1" d="M41.44,0H192.56C215.47,0,234,19,234,42.5v149c0,23.5-18.53,42.5-41.44,42.5H41.44C18.53,234,0,215,0,191.5V42.5C0,19,18.53,0,41.44,0Z"/><path id="logo" class="cls-2" d="M117,34.1c-45.79,0-82.87,38-82.87,85,0,37.61,23.72,69.38,56.66,80.64,4.14.74,5.7-1.81,5.7-4,0-2-.11-8.71-.11-15.83-20.82,3.93-26.2-5.2-27.86-10-.93-2.44-5-10-8.5-12-2.9-1.6-7-5.53-.1-5.63,6.53-.11,11.19,6.16,12.74,8.71,7.46,12.86,19.37,9.24,24.14,7,.72-5.52,2.9-9.24,5.28-11.37-18.44-2.12-37.71-9.45-37.71-42a33.58,33.58,0,0,1,8.5-22.84C72,89.67,69.14,81,73.7,69.27c0,0,6.94-2.24,22.79,8.71a76.17,76.17,0,0,1,41.44,0c15.85-11,22.79-8.71,22.79-8.71,4.55,11.68,1.65,20.4.83,22.52A33.39,33.39,0,0,1,170,114.63c0,32.62-19.37,39.85-37.81,42,3,2.66,5.59,7.76,5.59,15.73,0,11.37-.1,20.5-.1,23.37,0,2.23,1.55,4.89,5.7,4,32.73-11.26,56.46-43.14,56.46-80.64C199.88,72.13,162.79,34.1,117,34.1Z"/></g></g></g></svg>