<svg xmlns="http://www.w3.org/2000/svg" viewBox="0 0 234 234"><defs><style>.cls-1{fill:#666;}.cls-2{fill:#fff;}</style></defs><title>icon_rails</title><g id="Calque_2" data-name="Calque 2"><g id="logos"><g id="rails"><path id="fond-11" class="cls-1" d="M41.44,0H192.56C215.47,0,234,19,234,42.5v149c0,23.5-18.53,42.5-41.44,42.5H41.44C18.53,234,0,215,0,191.5V42.5C0,19,18.53,0,41.44,0Z"/><g id="logo-4"><path class="cls-2" d="M197.22,134.4v10.2h18a10.39,10.39,0,0,0,10.22-10.49v-3.94a10.28,10.28,0,0,0-10.07-10.49h-9.15V115H224V104.68H207a10.6,10.6,0,0,0-10.28,10.66v3.55A10.41,10.41,0,0,0,207,129.38c12.37.05-3,0,8.47,0v5M101,132s9.62-.84,9.62-13.58-11.71-14-11.71-14h-21v40.2H88.44v-9.7l9.12,9.7h15.61Zm-4.07-8.23H88.44v-9.19H96.9s2.37.91,2.37,4.57-2.42,4.58-2.42,4.58Zm39.74-19H125.87c-7.64,0-10.22,7.11-10.22,10.49V144.6h10.72v-7h10.06v7h10.39V115.17c0-8.57-7.59-10.49-10.23-10.49Zm-.16,21.48H126.31v-9.75s0-2.2,3.35-2.2h3.69c3,0,3,2.2,3,2.2v9.75Z"/><rect class="cls-2" x="151.71" y="104.68" width="11.16" height="39.92"/><polygon class="cls-2" points="178.53 134.28 178.53 104.68 167.43 104.68 167.43 134.28 167.43 144.6 178.53 144.6 193.54 144.6 193.54 134.28 178.53 134.28"/><path class="cls-2" d="M11.65,144.6H55.07S46.77,105.76,74.26,90c6-3,25.06-14.15,56.28,9.52,1-.84,1.93-1.52,1.93-1.52S103.88,68.77,72.06,72c-16,1.47-35.68,16.41-47.22,36.14S11.65,144.6,11.65,144.6Z"/><path class="cls-2" d="M11.65,144.6H55.07S46.77,105.76,74.26,90c6-3,25.06-14.15,56.28,9.52,1-.84,1.93-1.52,1.93-1.52S103.88,68.77,72.06,72c-16,1.47-35.68,16.41-47.22,36.14S11.65,144.6,11.65,144.6Z"/><path class="cls-2" d="M11.65,144.6H55.07S46.77,105.76,74.26,90c6-3,25.06-14.15,56.28,9.52,1-.84,1.93-1.52,1.93-1.52S103.88,68.77,72.06,72C56,73.51,36.33,88.45,24.79,108.18S11.65,144.6,11.65,144.6Zm90.48-69.4.22-3.78a26,26,0,0,0-5.34-2l-.22,3.72C98.61,73.79,100.37,74.47,102.13,75.2Z"/><path class="cls-2" d="M96.9,87.15l-.22,3.55a30.31,30.31,0,0,1,5.45.68l.22-3.5A38.56,38.56,0,0,0,96.9,87.15ZM76.57,69.56h.55L76,66.12a42.3,42.3,0,0,0-5.28.34l1,3.33A46.18,46.18,0,0,1,76.57,69.56ZM79.2,90.31l1.27,3.89a34.47,34.47,0,0,1,4.78-2L84,88.5A40.77,40.77,0,0,0,79.2,90.31Zm-25-14.83-2.48-3.89c-1.37.73-2.8,1.52-4.28,2.42L50,78a46.38,46.38,0,0,1,4.25-2.52Zm11.27,25.37,2.64,4.06a30.3,30.3,0,0,1,3.24-4l-2.48-3.84a30.8,30.8,0,0,0-3.35,3.78Zm-8,18.15L62,122.61A46.15,46.15,0,0,1,63.15,116l-3.95-3.2a55,55,0,0,0-1.65,6.2Zm-24-26.78-3.9-3.49c-1.43,1.41-2.81,2.82-4.07,4.23l4.23,3.72C30.89,95.16,32.15,93.63,33.47,92.22Zm-16.6,25.21-6.32-2.37c-1.05,2.42-2.2,5.24-2.75,6.76l6.32,2.37C14.84,122.27,16,119.51,16.87,117.43Zm39.85,15.89a60.41,60.41,0,0,0,.66,7.11l6.6,2.42a71.9,71.9,0,0,1-1.32-7.33Z"/></g></g></g></g></svg>